<svg width="20" height="20" viewBox="0 0 20 20" fill="none" xmlns="http://www.w3.org/2000/svg">
<path d="M10 0C4.47715 0 0 4.47715 0 10C0 15.5228 4.47715 20 10 20C15.5228 20 20 15.5228 20 10C19.9936 4.47982 15.5202 0.00642897 10 0Z" fill="#B39384"/>
<path d="M15.7722 6.83334L10.068 14.5742C9.93197 14.7547 9.72912 14.8729 9.50503 14.9024C9.28094 14.9319 9.05441 14.87 8.87634 14.7308L4.80301 11.4742C4.44356 11.1865 4.38536 10.662 4.67301 10.3025C4.96066 9.94306 5.48523 9.88486 5.84468 10.1725L9.24134 12.89L14.4305 5.84751C14.6007 5.59217 14.8974 5.45099 15.2029 5.48004C15.5083 5.50909 15.7731 5.70365 15.8921 5.98649C16.0111 6.26932 15.965 6.59466 15.7722 6.83334Z" fill="#FBFBFB"/>
</svg>
